# xmcd CD database file
#
# Track frame offsets:
#	150
#	18498
#	31559
#	57808
#	73263
#	87108
#	102691
#	116391
#	134337
#	147086
#	162967
#	177720
#	192739
#	205486
#	227872
#
# Disc length: 3190 seconds
#
# Revision: 0
# Processed by: cddbd v1.5.2PL0 Copyright (c) Steve Scherf et al.
# Submitted via: CDex 1.51
#
DISCID=dc0c740f
DTITLE=Victor e Leo - Ao Vivo
DYEAR=2007
DGENRE=Sertaneja
TTITLE0=Fada
TTITLE1=Sinto falta de voce
TTITLE2=60 dias apaixonado
TTITLE3=Amigo apaixonado
TTITLE4=Tem que ser voce
TTITLE5=Vida boa
TTITLE6=Sem voce
TTITLE7=Nova York
TTITLE8=Arapuca
TTITLE9=Lembranças de amor
TTITLE10=Jogo da vida
TTITLE11=O granfino e o caipira
TTITLE12=Fotos
TTITLE13=Meu eu em voce
TTITLE14=Chuva de bruxaria
EXTD=YEAR: 2007
EXTT0=
EXTT1=
EXTT2=
EXTT3=
EXTT4=
EXTT5=
EXTT6=
EXTT7=
EXTT8=
EXTT9=
EXTT10=
EXTT11=
EXTT12=
EXTT13=
EXTT14=
PLAYORDER=
